<mxfile host="app.diagrams.net" modified="2024-04-14T04:34:47.165Z" agent="Mozilla/5.0 (Windows NT 10.0; Win64; x64) AppleWebKit/537.36 (KHTML, like Gecko) Chrome/123.0.0.0 Safari/537.36 Edg/123.0.0.0" etag="0a5COLHvy83_KTAgb2ky" version="24.2.3" type="device">
  <diagram id="R2lEEEUBdFMjLlhIrx00" name="Page-1">
    <mxGraphModel dx="3028" dy="1042" grid="1" gridSize="10" guides="1" tooltips="1" connect="1" arrows="1" fold="1" page="1" pageScale="1" pageWidth="850" pageHeight="1100" math="0" shadow="0" extFonts="Permanent Marker^https://fonts.googleapis.com/css?family=Permanent+Marker">
      <root>
        <mxCell id="0" />
        <mxCell id="1" parent="0" />
        <mxCell id="g8YVUo3Ev3JXfUxe4tTI-1" value="&lt;font style=&quot;font-size: 18px;&quot;&gt;Material&lt;/font&gt;" style="rounded=0;whiteSpace=wrap;html=1;" vertex="1" parent="1">
          <mxGeometry x="-382.5" y="530" width="150" height="86.25" as="geometry" />
        </mxCell>
        <mxCell id="g8YVUo3Ev3JXfUxe4tTI-8" value="&lt;u&gt;&lt;font style=&quot;font-size: 18px;&quot;&gt;Material_ID&lt;/font&gt;&lt;/u&gt;" style="ellipse;whiteSpace=wrap;html=1;" vertex="1" parent="1">
          <mxGeometry x="-750" y="513.75" width="205" height="86.25" as="geometry" />
        </mxCell>
        <mxCell id="g8YVUo3Ev3JXfUxe4tTI-11" value="" style="endArrow=none;html=1;rounded=0;exitX=1;exitY=0.5;exitDx=0;exitDy=0;entryX=0;entryY=0.5;entryDx=0;entryDy=0;" edge="1" parent="1" source="g8YVUo3Ev3JXfUxe4tTI-8" target="g8YVUo3Ev3JXfUxe4tTI-1">
          <mxGeometry width="50" height="50" relative="1" as="geometry">
            <mxPoint x="470" y="320" as="sourcePoint" />
            <mxPoint x="520" y="270" as="targetPoint" />
          </mxGeometry>
        </mxCell>
        <mxCell id="g8YVUo3Ev3JXfUxe4tTI-12" value="" style="endArrow=none;html=1;rounded=0;exitX=0;exitY=0;exitDx=0;exitDy=0;" edge="1" parent="1" source="g8YVUo3Ev3JXfUxe4tTI-1" target="g8YVUo3Ev3JXfUxe4tTI-13">
          <mxGeometry width="50" height="50" relative="1" as="geometry">
            <mxPoint x="470" y="320" as="sourcePoint" />
            <mxPoint x="70" y="180" as="targetPoint" />
          </mxGeometry>
        </mxCell>
        <mxCell id="g8YVUo3Ev3JXfUxe4tTI-13" value="&lt;font style=&quot;font-size: 18px;&quot;&gt;Title&lt;/font&gt;" style="ellipse;whiteSpace=wrap;html=1;" vertex="1" parent="1">
          <mxGeometry x="-565" y="460" width="150" height="60" as="geometry" />
        </mxCell>
        <mxCell id="g8YVUo3Ev3JXfUxe4tTI-14" value="" style="endArrow=none;html=1;rounded=0;entryX=0;entryY=1;entryDx=0;entryDy=0;exitX=1;exitY=0.5;exitDx=0;exitDy=0;" edge="1" parent="1" source="g8YVUo3Ev3JXfUxe4tTI-15" target="g8YVUo3Ev3JXfUxe4tTI-1">
          <mxGeometry width="50" height="50" relative="1" as="geometry">
            <mxPoint x="70" y="290" as="sourcePoint" />
            <mxPoint x="520" y="270" as="targetPoint" />
          </mxGeometry>
        </mxCell>
        <mxCell id="g8YVUo3Ev3JXfUxe4tTI-15" value="&lt;font style=&quot;font-size: 18px;&quot;&gt;Publication_Date&lt;/font&gt;" style="ellipse;whiteSpace=wrap;html=1;" vertex="1" parent="1">
          <mxGeometry x="-710" y="620" width="180" height="80" as="geometry" />
        </mxCell>
        <mxCell id="g8YVUo3Ev3JXfUxe4tTI-22" value="&lt;font style=&quot;font-size: 18px;&quot;&gt;Authorship&lt;/font&gt;" style="rhombus;whiteSpace=wrap;html=1;" vertex="1" parent="1">
          <mxGeometry x="-365" y="330" width="115" height="90" as="geometry" />
        </mxCell>
        <mxCell id="g8YVUo3Ev3JXfUxe4tTI-28" value="" style="shape=link;html=1;rounded=0;exitX=0.5;exitY=0;exitDx=0;exitDy=0;entryX=0.5;entryY=1;entryDx=0;entryDy=0;" edge="1" parent="1" source="g8YVUo3Ev3JXfUxe4tTI-1" target="g8YVUo3Ev3JXfUxe4tTI-22">
          <mxGeometry relative="1" as="geometry">
            <mxPoint x="290" y="230" as="sourcePoint" />
            <mxPoint x="450" y="230" as="targetPoint" />
          </mxGeometry>
        </mxCell>
        <mxCell id="g8YVUo3Ev3JXfUxe4tTI-29" value="N" style="resizable=0;html=1;whiteSpace=wrap;align=right;verticalAlign=bottom;" connectable="0" vertex="1" parent="g8YVUo3Ev3JXfUxe4tTI-28">
          <mxGeometry x="1" relative="1" as="geometry">
            <mxPoint x="-10" y="-140" as="offset" />
          </mxGeometry>
        </mxCell>
        <mxCell id="g8YVUo3Ev3JXfUxe4tTI-30" value="" style="shape=link;html=1;rounded=0;exitX=0.5;exitY=0;exitDx=0;exitDy=0;entryX=0.5;entryY=1;entryDx=0;entryDy=0;" edge="1" parent="1" source="g8YVUo3Ev3JXfUxe4tTI-33" target="g8YVUo3Ev3JXfUxe4tTI-33">
          <mxGeometry relative="1" as="geometry">
            <mxPoint x="-290" y="300" as="sourcePoint" />
            <mxPoint x="-290" y="140" as="targetPoint" />
          </mxGeometry>
        </mxCell>
        <mxCell id="g8YVUo3Ev3JXfUxe4tTI-35" value="" style="shape=link;html=1;rounded=0;exitX=0.5;exitY=0;exitDx=0;exitDy=0;" edge="1" parent="1" source="g8YVUo3Ev3JXfUxe4tTI-22" target="g8YVUo3Ev3JXfUxe4tTI-33">
          <mxGeometry relative="1" as="geometry">
            <mxPoint x="-290" y="330" as="sourcePoint" />
            <mxPoint x="-290" y="140" as="targetPoint" />
          </mxGeometry>
        </mxCell>
        <mxCell id="g8YVUo3Ev3JXfUxe4tTI-36" value="M" style="resizable=0;html=1;whiteSpace=wrap;align=left;verticalAlign=bottom;" connectable="0" vertex="1" parent="g8YVUo3Ev3JXfUxe4tTI-35">
          <mxGeometry x="-1" relative="1" as="geometry">
            <mxPoint x="-20" y="160" as="offset" />
          </mxGeometry>
        </mxCell>
        <mxCell id="g8YVUo3Ev3JXfUxe4tTI-33" value="&lt;font style=&quot;font-size: 18px;&quot;&gt;Author&lt;/font&gt;" style="rounded=0;whiteSpace=wrap;html=1;" vertex="1" parent="1">
          <mxGeometry x="-371.25" y="190" width="125" height="60" as="geometry" />
        </mxCell>
        <mxCell id="g8YVUo3Ev3JXfUxe4tTI-37" value="&lt;font style=&quot;font-size: 18px;&quot;&gt;&lt;u&gt;Authorship_ID&lt;/u&gt;&lt;/font&gt;" style="ellipse;whiteSpace=wrap;html=1;align=center;" vertex="1" parent="1">
          <mxGeometry x="-200" y="350" width="170" height="50" as="geometry" />
        </mxCell>
        <mxCell id="g8YVUo3Ev3JXfUxe4tTI-38" value="" style="endArrow=none;html=1;rounded=0;entryX=1;entryY=0.5;entryDx=0;entryDy=0;exitX=0;exitY=0.5;exitDx=0;exitDy=0;" edge="1" parent="1" source="g8YVUo3Ev3JXfUxe4tTI-37" target="g8YVUo3Ev3JXfUxe4tTI-22">
          <mxGeometry width="50" height="50" relative="1" as="geometry">
            <mxPoint x="-140" y="390" as="sourcePoint" />
            <mxPoint x="60" y="460" as="targetPoint" />
          </mxGeometry>
        </mxCell>
        <mxCell id="g8YVUo3Ev3JXfUxe4tTI-39" value="&lt;font style=&quot;font-size: 18px;&quot;&gt;Name&lt;/font&gt;" style="ellipse;whiteSpace=wrap;html=1;align=center;" vertex="1" parent="1">
          <mxGeometry x="-602.5" y="190" width="140" height="60" as="geometry" />
        </mxCell>
        <mxCell id="g8YVUo3Ev3JXfUxe4tTI-40" value="&lt;font style=&quot;font-size: 18px;&quot;&gt;Author_ID&lt;/font&gt;" style="ellipse;whiteSpace=wrap;html=1;align=center;fontStyle=4;" vertex="1" parent="1">
          <mxGeometry x="-555" y="260" width="130" height="50" as="geometry" />
        </mxCell>
        <mxCell id="g8YVUo3Ev3JXfUxe4tTI-41" value="&lt;font style=&quot;font-size: 18px;&quot;&gt;Birth_Date&lt;/font&gt;" style="ellipse;whiteSpace=wrap;html=1;align=center;" vertex="1" parent="1">
          <mxGeometry x="-300" y="60" width="120" height="60" as="geometry" />
        </mxCell>
        <mxCell id="g8YVUo3Ev3JXfUxe4tTI-42" value="&lt;font style=&quot;font-size: 18px;&quot;&gt;Nationality&lt;/font&gt;" style="ellipse;whiteSpace=wrap;html=1;align=center;" vertex="1" parent="1">
          <mxGeometry x="-500" y="70" width="160" height="50" as="geometry" />
        </mxCell>
        <mxCell id="g8YVUo3Ev3JXfUxe4tTI-43" value="" style="endArrow=none;html=1;rounded=0;exitX=0.5;exitY=0;exitDx=0;exitDy=0;entryX=0.5;entryY=1;entryDx=0;entryDy=0;" edge="1" parent="1" source="g8YVUo3Ev3JXfUxe4tTI-33" target="g8YVUo3Ev3JXfUxe4tTI-41">
          <mxGeometry width="50" height="50" relative="1" as="geometry">
            <mxPoint x="10" y="350" as="sourcePoint" />
            <mxPoint x="60" y="300" as="targetPoint" />
          </mxGeometry>
        </mxCell>
        <mxCell id="g8YVUo3Ev3JXfUxe4tTI-44" value="" style="endArrow=none;html=1;rounded=0;exitX=0.5;exitY=1;exitDx=0;exitDy=0;entryX=0.25;entryY=0;entryDx=0;entryDy=0;" edge="1" parent="1" source="g8YVUo3Ev3JXfUxe4tTI-42" target="g8YVUo3Ev3JXfUxe4tTI-33">
          <mxGeometry width="50" height="50" relative="1" as="geometry">
            <mxPoint x="10" y="350" as="sourcePoint" />
            <mxPoint x="60" y="300" as="targetPoint" />
          </mxGeometry>
        </mxCell>
        <mxCell id="g8YVUo3Ev3JXfUxe4tTI-45" value="" style="endArrow=none;html=1;rounded=0;exitX=1;exitY=0.5;exitDx=0;exitDy=0;entryX=0;entryY=0.5;entryDx=0;entryDy=0;" edge="1" parent="1" source="g8YVUo3Ev3JXfUxe4tTI-39" target="g8YVUo3Ev3JXfUxe4tTI-33">
          <mxGeometry width="50" height="50" relative="1" as="geometry">
            <mxPoint x="10" y="350" as="sourcePoint" />
            <mxPoint x="60" y="300" as="targetPoint" />
          </mxGeometry>
        </mxCell>
        <mxCell id="g8YVUo3Ev3JXfUxe4tTI-46" value="" style="endArrow=none;html=1;rounded=0;exitX=1;exitY=0.5;exitDx=0;exitDy=0;entryX=0;entryY=1;entryDx=0;entryDy=0;" edge="1" parent="1" source="g8YVUo3Ev3JXfUxe4tTI-40" target="g8YVUo3Ev3JXfUxe4tTI-33">
          <mxGeometry width="50" height="50" relative="1" as="geometry">
            <mxPoint x="10" y="350" as="sourcePoint" />
            <mxPoint x="60" y="300" as="targetPoint" />
          </mxGeometry>
        </mxCell>
        <mxCell id="g8YVUo3Ev3JXfUxe4tTI-50" value="&lt;font style=&quot;font-size: 18px;&quot;&gt;Taking from&lt;/font&gt;" style="rhombus;whiteSpace=wrap;html=1;" vertex="1" parent="1">
          <mxGeometry x="-152.5" y="513.12" width="122.5" height="120" as="geometry" />
        </mxCell>
        <mxCell id="g8YVUo3Ev3JXfUxe4tTI-57" value="" style="endArrow=none;html=1;rounded=0;entryX=1;entryY=0.5;entryDx=0;entryDy=0;exitX=0;exitY=0.5;exitDx=0;exitDy=0;" edge="1" parent="1" source="g8YVUo3Ev3JXfUxe4tTI-50" target="g8YVUo3Ev3JXfUxe4tTI-1">
          <mxGeometry relative="1" as="geometry">
            <mxPoint x="-230" y="560" as="sourcePoint" />
            <mxPoint x="-70" y="560" as="targetPoint" />
          </mxGeometry>
        </mxCell>
        <mxCell id="g8YVUo3Ev3JXfUxe4tTI-58" value="1" style="resizable=0;html=1;whiteSpace=wrap;align=right;verticalAlign=bottom;" connectable="0" vertex="1" parent="g8YVUo3Ev3JXfUxe4tTI-57">
          <mxGeometry x="1" relative="1" as="geometry">
            <mxPoint x="22" y="27" as="offset" />
          </mxGeometry>
        </mxCell>
        <mxCell id="g8YVUo3Ev3JXfUxe4tTI-59" value="" style="shape=link;html=1;rounded=0;exitX=1;exitY=0.5;exitDx=0;exitDy=0;entryX=0;entryY=0.5;entryDx=0;entryDy=0;" edge="1" parent="1" source="g8YVUo3Ev3JXfUxe4tTI-50" target="g8YVUo3Ev3JXfUxe4tTI-62">
          <mxGeometry relative="1" as="geometry">
            <mxPoint x="-330" y="740" as="sourcePoint" />
            <mxPoint x="-310" y="880" as="targetPoint" />
          </mxGeometry>
        </mxCell>
        <mxCell id="g8YVUo3Ev3JXfUxe4tTI-60" value="N" style="resizable=0;html=1;whiteSpace=wrap;align=right;verticalAlign=bottom;" connectable="0" vertex="1" parent="g8YVUo3Ev3JXfUxe4tTI-59">
          <mxGeometry x="1" relative="1" as="geometry">
            <mxPoint x="-11" as="offset" />
          </mxGeometry>
        </mxCell>
        <mxCell id="g8YVUo3Ev3JXfUxe4tTI-62" value="&lt;font style=&quot;font-size: 18px;&quot;&gt;Borrow&lt;/font&gt;" style="whiteSpace=wrap;html=1;align=center;" vertex="1" parent="1">
          <mxGeometry x="90" y="551.56" width="100" height="43.13" as="geometry" />
        </mxCell>
        <mxCell id="g8YVUo3Ev3JXfUxe4tTI-64" value="&lt;font style=&quot;font-size: 18px;&quot;&gt;Due_Date&lt;/font&gt;" style="ellipse;whiteSpace=wrap;html=1;align=center;" vertex="1" parent="1">
          <mxGeometry x="330" y="450" width="140" height="63.12" as="geometry" />
        </mxCell>
        <mxCell id="g8YVUo3Ev3JXfUxe4tTI-65" value="&lt;font style=&quot;font-size: 18px;&quot;&gt;Return_Date&lt;/font&gt;" style="ellipse;whiteSpace=wrap;html=1;align=center;" vertex="1" parent="1">
          <mxGeometry x="320" y="710" width="140" height="60" as="geometry" />
        </mxCell>
        <mxCell id="g8YVUo3Ev3JXfUxe4tTI-66" value="&lt;font style=&quot;font-size: 18px;&quot;&gt;Borrow_Date&lt;/font&gt;" style="ellipse;whiteSpace=wrap;html=1;align=center;" vertex="1" parent="1">
          <mxGeometry x="310" y="633.12" width="150" height="56.88" as="geometry" />
        </mxCell>
        <mxCell id="g8YVUo3Ev3JXfUxe4tTI-67" value="&lt;font style=&quot;font-size: 18px;&quot;&gt;Borrow_ID&lt;/font&gt;" style="ellipse;whiteSpace=wrap;html=1;align=center;fontStyle=4;" vertex="1" parent="1">
          <mxGeometry x="330" y="550" width="140" height="60" as="geometry" />
        </mxCell>
        <mxCell id="g8YVUo3Ev3JXfUxe4tTI-74" value="" style="endArrow=none;html=1;rounded=0;exitX=1;exitY=0;exitDx=0;exitDy=0;entryX=0;entryY=0.5;entryDx=0;entryDy=0;" edge="1" parent="1" source="g8YVUo3Ev3JXfUxe4tTI-62" target="g8YVUo3Ev3JXfUxe4tTI-64">
          <mxGeometry relative="1" as="geometry">
            <mxPoint x="-70" y="600" as="sourcePoint" />
            <mxPoint x="90" y="600" as="targetPoint" />
          </mxGeometry>
        </mxCell>
        <mxCell id="g8YVUo3Ev3JXfUxe4tTI-75" value="" style="endArrow=none;html=1;rounded=0;exitX=1;exitY=0.5;exitDx=0;exitDy=0;entryX=0;entryY=0.5;entryDx=0;entryDy=0;" edge="1" parent="1" source="g8YVUo3Ev3JXfUxe4tTI-62" target="g8YVUo3Ev3JXfUxe4tTI-67">
          <mxGeometry relative="1" as="geometry">
            <mxPoint x="110" y="560" as="sourcePoint" />
            <mxPoint x="210" y="500" as="targetPoint" />
          </mxGeometry>
        </mxCell>
        <mxCell id="g8YVUo3Ev3JXfUxe4tTI-76" value="" style="endArrow=none;html=1;rounded=0;exitX=1;exitY=1;exitDx=0;exitDy=0;entryX=0;entryY=0.5;entryDx=0;entryDy=0;" edge="1" parent="1" source="g8YVUo3Ev3JXfUxe4tTI-62" target="g8YVUo3Ev3JXfUxe4tTI-66">
          <mxGeometry relative="1" as="geometry">
            <mxPoint x="120" y="570" as="sourcePoint" />
            <mxPoint x="220" y="510" as="targetPoint" />
          </mxGeometry>
        </mxCell>
        <mxCell id="g8YVUo3Ev3JXfUxe4tTI-77" value="" style="endArrow=none;html=1;rounded=0;exitX=0.75;exitY=1;exitDx=0;exitDy=0;entryX=0;entryY=0.5;entryDx=0;entryDy=0;" edge="1" parent="1" source="g8YVUo3Ev3JXfUxe4tTI-62" target="g8YVUo3Ev3JXfUxe4tTI-65">
          <mxGeometry relative="1" as="geometry">
            <mxPoint x="130" y="580" as="sourcePoint" />
            <mxPoint x="230" y="520" as="targetPoint" />
          </mxGeometry>
        </mxCell>
        <mxCell id="g8YVUo3Ev3JXfUxe4tTI-78" value="" style="shape=link;html=1;rounded=0;entryX=0.5;entryY=0;entryDx=0;entryDy=0;exitX=0.5;exitY=1;exitDx=0;exitDy=0;" edge="1" parent="1" source="g8YVUo3Ev3JXfUxe4tTI-80" target="g8YVUo3Ev3JXfUxe4tTI-62">
          <mxGeometry relative="1" as="geometry">
            <mxPoint x="99.84" y="390" as="sourcePoint" />
            <mxPoint x="99.83999999999978" y="550" as="targetPoint" />
          </mxGeometry>
        </mxCell>
        <mxCell id="g8YVUo3Ev3JXfUxe4tTI-79" value="N" style="resizable=0;html=1;whiteSpace=wrap;align=right;verticalAlign=bottom;" connectable="0" vertex="1" parent="g8YVUo3Ev3JXfUxe4tTI-78">
          <mxGeometry x="1" relative="1" as="geometry">
            <mxPoint x="-10" y="-4" as="offset" />
          </mxGeometry>
        </mxCell>
        <mxCell id="g8YVUo3Ev3JXfUxe4tTI-80" value="&lt;font style=&quot;font-size: 18px;&quot;&gt;&lt;font style=&quot;&quot;&gt;&lt;font style=&quot;&quot;&gt;Borrowed&lt;/font&gt;&lt;font style=&quot;&quot;&gt;&amp;nbsp;&lt;/font&gt;&lt;/font&gt;&lt;span style=&quot;background-color: initial;&quot;&gt;By&lt;/span&gt;&lt;/font&gt;" style="rhombus;whiteSpace=wrap;html=1;" vertex="1" parent="1">
          <mxGeometry x="70" y="280" width="170" height="160" as="geometry" />
        </mxCell>
        <mxCell id="g8YVUo3Ev3JXfUxe4tTI-83" value="&lt;font style=&quot;font-size: 18px;&quot;&gt;Member&lt;/font&gt;" style="whiteSpace=wrap;html=1;align=center;" vertex="1" parent="1">
          <mxGeometry x="110" y="170" width="100" height="60" as="geometry" />
        </mxCell>
        <mxCell id="g8YVUo3Ev3JXfUxe4tTI-84" value="" style="shape=link;html=1;rounded=0;entryX=0.5;entryY=1;entryDx=0;entryDy=0;exitX=0.5;exitY=0;exitDx=0;exitDy=0;" edge="1" parent="1" source="g8YVUo3Ev3JXfUxe4tTI-86" target="g8YVUo3Ev3JXfUxe4tTI-62">
          <mxGeometry relative="1" as="geometry">
            <mxPoint x="100" y="720" as="sourcePoint" />
            <mxPoint x="80" y="633.12" as="targetPoint" />
          </mxGeometry>
        </mxCell>
        <mxCell id="g8YVUo3Ev3JXfUxe4tTI-85" value="N" style="resizable=0;html=1;whiteSpace=wrap;align=right;verticalAlign=bottom;" connectable="0" vertex="1" parent="g8YVUo3Ev3JXfUxe4tTI-84">
          <mxGeometry x="1" relative="1" as="geometry">
            <mxPoint x="-10" y="17" as="offset" />
          </mxGeometry>
        </mxCell>
        <mxCell id="g8YVUo3Ev3JXfUxe4tTI-86" value="&lt;font style=&quot;font-size: 18px;&quot;&gt;Maintained&lt;/font&gt;&lt;div&gt;&lt;font style=&quot;font-size: 18px;&quot;&gt;By&lt;/font&gt;&lt;/div&gt;" style="rhombus;whiteSpace=wrap;html=1;" vertex="1" parent="1">
          <mxGeometry x="35" y="720" width="130" height="130" as="geometry" />
        </mxCell>
        <mxCell id="g8YVUo3Ev3JXfUxe4tTI-87" value="" style="endArrow=none;html=1;rounded=0;exitX=0.5;exitY=1;exitDx=0;exitDy=0;entryX=0.5;entryY=0;entryDx=0;entryDy=0;" edge="1" parent="1" source="g8YVUo3Ev3JXfUxe4tTI-86" target="g8YVUo3Ev3JXfUxe4tTI-89">
          <mxGeometry relative="1" as="geometry">
            <mxPoint x="20" y="950" as="sourcePoint" />
            <mxPoint x="100" y="940" as="targetPoint" />
          </mxGeometry>
        </mxCell>
        <mxCell id="g8YVUo3Ev3JXfUxe4tTI-88" value="1" style="resizable=0;html=1;whiteSpace=wrap;align=right;verticalAlign=bottom;" connectable="0" vertex="1" parent="g8YVUo3Ev3JXfUxe4tTI-87">
          <mxGeometry x="1" relative="1" as="geometry">
            <mxPoint x="-10" as="offset" />
          </mxGeometry>
        </mxCell>
        <mxCell id="g8YVUo3Ev3JXfUxe4tTI-89" value="&lt;font style=&quot;font-size: 18px;&quot;&gt;Staff&lt;/font&gt;" style="whiteSpace=wrap;html=1;align=center;" vertex="1" parent="1">
          <mxGeometry x="50" y="950" width="100" height="40" as="geometry" />
        </mxCell>
        <mxCell id="g8YVUo3Ev3JXfUxe4tTI-90" value="&lt;font style=&quot;font-size: 18px;&quot;&gt;Name&lt;/font&gt;" style="ellipse;whiteSpace=wrap;html=1;align=center;" vertex="1" parent="1">
          <mxGeometry x="-100" y="950" width="100" height="40" as="geometry" />
        </mxCell>
        <mxCell id="g8YVUo3Ev3JXfUxe4tTI-91" value="&lt;font style=&quot;font-size: 18px;&quot;&gt;Contact_Info&lt;/font&gt;" style="ellipse;whiteSpace=wrap;html=1;align=center;" vertex="1" parent="1">
          <mxGeometry x="-80" y="1010" width="115" height="50" as="geometry" />
        </mxCell>
        <mxCell id="g8YVUo3Ev3JXfUxe4tTI-92" value="&lt;font style=&quot;font-size: 18px;&quot;&gt;Job_Title&lt;/font&gt;" style="ellipse;whiteSpace=wrap;html=1;align=center;" vertex="1" parent="1">
          <mxGeometry x="50" y="1040" width="110" height="50" as="geometry" />
        </mxCell>
        <mxCell id="g8YVUo3Ev3JXfUxe4tTI-93" value="&lt;font style=&quot;font-size: 18px;&quot;&gt;Hire_Data&lt;/font&gt;" style="ellipse;whiteSpace=wrap;html=1;align=center;" vertex="1" parent="1">
          <mxGeometry x="170" y="1010" width="110" height="50" as="geometry" />
        </mxCell>
        <mxCell id="g8YVUo3Ev3JXfUxe4tTI-94" value="&lt;font style=&quot;font-size: 18px;&quot;&gt;Staff_ID&lt;/font&gt;" style="ellipse;whiteSpace=wrap;html=1;align=center;fontStyle=4;" vertex="1" parent="1">
          <mxGeometry x="230" y="950" width="100" height="50" as="geometry" />
        </mxCell>
        <mxCell id="g8YVUo3Ev3JXfUxe4tTI-95" value="" style="endArrow=none;html=1;rounded=0;exitX=1;exitY=0.5;exitDx=0;exitDy=0;entryX=0;entryY=0.5;entryDx=0;entryDy=0;" edge="1" parent="1" source="g8YVUo3Ev3JXfUxe4tTI-89" target="g8YVUo3Ev3JXfUxe4tTI-94">
          <mxGeometry relative="1" as="geometry">
            <mxPoint x="170" y="990" as="sourcePoint" />
            <mxPoint x="330" y="990" as="targetPoint" />
          </mxGeometry>
        </mxCell>
        <mxCell id="g8YVUo3Ev3JXfUxe4tTI-96" value="" style="endArrow=none;html=1;rounded=0;exitX=1;exitY=1;exitDx=0;exitDy=0;entryX=0.5;entryY=0;entryDx=0;entryDy=0;" edge="1" parent="1" source="g8YVUo3Ev3JXfUxe4tTI-89" target="g8YVUo3Ev3JXfUxe4tTI-93">
          <mxGeometry relative="1" as="geometry">
            <mxPoint x="200" y="1070" as="sourcePoint" />
            <mxPoint x="360" y="1070" as="targetPoint" />
          </mxGeometry>
        </mxCell>
        <mxCell id="g8YVUo3Ev3JXfUxe4tTI-97" value="" style="endArrow=none;html=1;rounded=0;exitX=0.5;exitY=1;exitDx=0;exitDy=0;entryX=0.5;entryY=0;entryDx=0;entryDy=0;" edge="1" parent="1" source="g8YVUo3Ev3JXfUxe4tTI-89" target="g8YVUo3Ev3JXfUxe4tTI-92">
          <mxGeometry relative="1" as="geometry">
            <mxPoint x="-190" y="1059.38" as="sourcePoint" />
            <mxPoint x="-30" y="1059.38" as="targetPoint" />
          </mxGeometry>
        </mxCell>
        <mxCell id="g8YVUo3Ev3JXfUxe4tTI-98" value="" style="endArrow=none;html=1;rounded=0;entryX=0;entryY=0.5;entryDx=0;entryDy=0;exitX=1;exitY=0.5;exitDx=0;exitDy=0;" edge="1" parent="1" source="g8YVUo3Ev3JXfUxe4tTI-90" target="g8YVUo3Ev3JXfUxe4tTI-89">
          <mxGeometry relative="1" as="geometry">
            <mxPoint x="-280" y="1020" as="sourcePoint" />
            <mxPoint x="-120" y="1020" as="targetPoint" />
          </mxGeometry>
        </mxCell>
        <mxCell id="g8YVUo3Ev3JXfUxe4tTI-99" value="" style="endArrow=none;html=1;rounded=0;entryX=0;entryY=1;entryDx=0;entryDy=0;exitX=1;exitY=0;exitDx=0;exitDy=0;" edge="1" parent="1" source="g8YVUo3Ev3JXfUxe4tTI-91" target="g8YVUo3Ev3JXfUxe4tTI-89">
          <mxGeometry relative="1" as="geometry">
            <mxPoint x="-70" y="1020" as="sourcePoint" />
            <mxPoint x="90" y="1020" as="targetPoint" />
          </mxGeometry>
        </mxCell>
        <mxCell id="g8YVUo3Ev3JXfUxe4tTI-100" value="&lt;font style=&quot;font-size: 18px;&quot;&gt;Join_Date&lt;/font&gt;" style="ellipse;whiteSpace=wrap;html=1;align=center;" vertex="1" parent="1">
          <mxGeometry x="-60" y="160" width="120" height="60" as="geometry" />
        </mxCell>
        <mxCell id="g8YVUo3Ev3JXfUxe4tTI-101" value="&lt;font style=&quot;font-size: 18px;&quot;&gt;Name&lt;/font&gt;" style="ellipse;whiteSpace=wrap;html=1;align=center;" vertex="1" parent="1">
          <mxGeometry x="30" y="47.5" width="130" height="60" as="geometry" />
        </mxCell>
        <mxCell id="g8YVUo3Ev3JXfUxe4tTI-102" value="&lt;font style=&quot;font-size: 18px;&quot;&gt;Contact_Info&lt;/font&gt;" style="ellipse;whiteSpace=wrap;html=1;align=center;" vertex="1" parent="1">
          <mxGeometry x="210" y="52.5" width="120" height="55" as="geometry" />
        </mxCell>
        <mxCell id="g8YVUo3Ev3JXfUxe4tTI-103" value="&lt;font style=&quot;font-size: 18px;&quot;&gt;Member_ID&lt;/font&gt;" style="ellipse;whiteSpace=wrap;html=1;align=center;fontStyle=4;" vertex="1" parent="1">
          <mxGeometry x="280" y="190" width="120" height="70" as="geometry" />
        </mxCell>
        <mxCell id="g8YVUo3Ev3JXfUxe4tTI-104" value="" style="endArrow=none;html=1;rounded=0;entryX=0;entryY=0.5;entryDx=0;entryDy=0;exitX=1;exitY=0.5;exitDx=0;exitDy=0;" edge="1" parent="1" source="g8YVUo3Ev3JXfUxe4tTI-100" target="g8YVUo3Ev3JXfUxe4tTI-83">
          <mxGeometry relative="1" as="geometry">
            <mxPoint x="-110" y="230" as="sourcePoint" />
            <mxPoint x="50" y="230" as="targetPoint" />
          </mxGeometry>
        </mxCell>
        <mxCell id="g8YVUo3Ev3JXfUxe4tTI-105" value="" style="endArrow=none;html=1;rounded=0;exitX=0.5;exitY=1;exitDx=0;exitDy=0;entryX=0.25;entryY=0;entryDx=0;entryDy=0;" edge="1" parent="1" source="g8YVUo3Ev3JXfUxe4tTI-101" target="g8YVUo3Ev3JXfUxe4tTI-83">
          <mxGeometry relative="1" as="geometry">
            <mxPoint x="10" y="150" as="sourcePoint" />
            <mxPoint x="170" y="150" as="targetPoint" />
          </mxGeometry>
        </mxCell>
        <mxCell id="g8YVUo3Ev3JXfUxe4tTI-106" value="" style="endArrow=none;html=1;rounded=0;exitX=0.75;exitY=0;exitDx=0;exitDy=0;entryX=0.5;entryY=1;entryDx=0;entryDy=0;" edge="1" parent="1" source="g8YVUo3Ev3JXfUxe4tTI-83" target="g8YVUo3Ev3JXfUxe4tTI-102">
          <mxGeometry relative="1" as="geometry">
            <mxPoint x="100" y="150" as="sourcePoint" />
            <mxPoint x="260" y="150" as="targetPoint" />
          </mxGeometry>
        </mxCell>
        <mxCell id="g8YVUo3Ev3JXfUxe4tTI-107" value="" style="endArrow=none;html=1;rounded=0;exitX=1;exitY=0.5;exitDx=0;exitDy=0;entryX=0;entryY=0.5;entryDx=0;entryDy=0;" edge="1" parent="1" source="g8YVUo3Ev3JXfUxe4tTI-83" target="g8YVUo3Ev3JXfUxe4tTI-103">
          <mxGeometry relative="1" as="geometry">
            <mxPoint x="160" y="270" as="sourcePoint" />
            <mxPoint x="320" y="270" as="targetPoint" />
          </mxGeometry>
        </mxCell>
        <mxCell id="g8YVUo3Ev3JXfUxe4tTI-108" value="" style="endArrow=none;html=1;rounded=0;exitX=0.5;exitY=0;exitDx=0;exitDy=0;entryX=0.5;entryY=1;entryDx=0;entryDy=0;" edge="1" parent="1" source="g8YVUo3Ev3JXfUxe4tTI-80" target="g8YVUo3Ev3JXfUxe4tTI-83">
          <mxGeometry relative="1" as="geometry">
            <mxPoint x="230" y="440" as="sourcePoint" />
            <mxPoint x="110" y="240" as="targetPoint" />
          </mxGeometry>
        </mxCell>
        <mxCell id="g8YVUo3Ev3JXfUxe4tTI-109" value="1" style="resizable=0;html=1;whiteSpace=wrap;align=right;verticalAlign=bottom;" connectable="0" vertex="1" parent="g8YVUo3Ev3JXfUxe4tTI-108">
          <mxGeometry x="1" relative="1" as="geometry">
            <mxPoint x="-5" y="20" as="offset" />
          </mxGeometry>
        </mxCell>
        <mxCell id="g8YVUo3Ev3JXfUxe4tTI-110" value="" style="shape=link;html=1;rounded=0;entryX=0.25;entryY=1;entryDx=0;entryDy=0;exitX=0.5;exitY=0;exitDx=0;exitDy=0;" edge="1" parent="1" source="g8YVUo3Ev3JXfUxe4tTI-112" target="g8YVUo3Ev3JXfUxe4tTI-1">
          <mxGeometry relative="1" as="geometry">
            <mxPoint x="-460" y="750" as="sourcePoint" />
            <mxPoint x="-30" y="700" as="targetPoint" />
          </mxGeometry>
        </mxCell>
        <mxCell id="g8YVUo3Ev3JXfUxe4tTI-111" value="N" style="resizable=0;html=1;whiteSpace=wrap;align=right;verticalAlign=bottom;" connectable="0" vertex="1" parent="g8YVUo3Ev3JXfUxe4tTI-110">
          <mxGeometry x="1" relative="1" as="geometry">
            <mxPoint x="15" y="34" as="offset" />
          </mxGeometry>
        </mxCell>
        <mxCell id="g8YVUo3Ev3JXfUxe4tTI-112" value="&lt;font style=&quot;font-size: 18px;&quot;&gt;Type of&lt;/font&gt;" style="rhombus;whiteSpace=wrap;html=1;" vertex="1" parent="1">
          <mxGeometry x="-445" y="760" width="80" height="80" as="geometry" />
        </mxCell>
        <mxCell id="g8YVUo3Ev3JXfUxe4tTI-114" value="&lt;font style=&quot;font-size: 18px;&quot;&gt;Genre&lt;/font&gt;" style="rounded=0;whiteSpace=wrap;html=1;" vertex="1" parent="1">
          <mxGeometry x="-640" y="770" width="120" height="60" as="geometry" />
        </mxCell>
        <mxCell id="g8YVUo3Ev3JXfUxe4tTI-115" value="" style="endArrow=none;html=1;rounded=0;entryX=1;entryY=0.5;entryDx=0;entryDy=0;exitX=0;exitY=0.5;exitDx=0;exitDy=0;" edge="1" parent="1" source="g8YVUo3Ev3JXfUxe4tTI-112" target="g8YVUo3Ev3JXfUxe4tTI-114">
          <mxGeometry relative="1" as="geometry">
            <mxPoint x="-590" y="770" as="sourcePoint" />
            <mxPoint x="-430" y="770" as="targetPoint" />
          </mxGeometry>
        </mxCell>
        <mxCell id="g8YVUo3Ev3JXfUxe4tTI-116" value="1" style="resizable=0;html=1;whiteSpace=wrap;align=right;verticalAlign=bottom;" connectable="0" vertex="1" parent="g8YVUo3Ev3JXfUxe4tTI-115">
          <mxGeometry x="1" relative="1" as="geometry">
            <mxPoint x="10" as="offset" />
          </mxGeometry>
        </mxCell>
        <mxCell id="g8YVUo3Ev3JXfUxe4tTI-117" value="&lt;font style=&quot;font-size: 18px;&quot;&gt;Description&lt;/font&gt;" style="ellipse;whiteSpace=wrap;html=1;align=center;" vertex="1" parent="1">
          <mxGeometry x="-690" y="870" width="110" height="50" as="geometry" />
        </mxCell>
        <mxCell id="g8YVUo3Ev3JXfUxe4tTI-118" value="&lt;font style=&quot;font-size: 18px;&quot;&gt;Name&lt;/font&gt;" style="ellipse;whiteSpace=wrap;html=1;align=center;" vertex="1" parent="1">
          <mxGeometry x="-780" y="810" width="100" height="40" as="geometry" />
        </mxCell>
        <mxCell id="g8YVUo3Ev3JXfUxe4tTI-119" value="&lt;font style=&quot;font-size: 18px;&quot;&gt;Genre_ID&lt;/font&gt;" style="ellipse;whiteSpace=wrap;html=1;align=center;fontStyle=4;" vertex="1" parent="1">
          <mxGeometry x="-770" y="730" width="100" height="40" as="geometry" />
        </mxCell>
        <mxCell id="g8YVUo3Ev3JXfUxe4tTI-120" value="" style="endArrow=none;html=1;rounded=0;exitX=1;exitY=0.5;exitDx=0;exitDy=0;entryX=0.5;entryY=0;entryDx=0;entryDy=0;" edge="1" parent="1" source="g8YVUo3Ev3JXfUxe4tTI-119" target="g8YVUo3Ev3JXfUxe4tTI-114">
          <mxGeometry relative="1" as="geometry">
            <mxPoint x="-540" y="770" as="sourcePoint" />
            <mxPoint x="-380" y="770" as="targetPoint" />
          </mxGeometry>
        </mxCell>
        <mxCell id="g8YVUo3Ev3JXfUxe4tTI-121" value="" style="endArrow=none;html=1;rounded=0;entryX=0.5;entryY=1;entryDx=0;entryDy=0;exitX=0.5;exitY=0;exitDx=0;exitDy=0;" edge="1" parent="1" source="g8YVUo3Ev3JXfUxe4tTI-117" target="g8YVUo3Ev3JXfUxe4tTI-114">
          <mxGeometry relative="1" as="geometry">
            <mxPoint x="-622.5" y="879.44" as="sourcePoint" />
            <mxPoint x="-462.5" y="879.44" as="targetPoint" />
          </mxGeometry>
        </mxCell>
        <mxCell id="g8YVUo3Ev3JXfUxe4tTI-122" value="" style="endArrow=none;html=1;rounded=0;entryX=0;entryY=0.5;entryDx=0;entryDy=0;exitX=1;exitY=0.5;exitDx=0;exitDy=0;" edge="1" parent="1" source="g8YVUo3Ev3JXfUxe4tTI-118" target="g8YVUo3Ev3JXfUxe4tTI-114">
          <mxGeometry relative="1" as="geometry">
            <mxPoint x="-790" y="860" as="sourcePoint" />
            <mxPoint x="-630" y="860" as="targetPoint" />
          </mxGeometry>
        </mxCell>
        <mxCell id="g8YVUo3Ev3JXfUxe4tTI-123" value="&lt;font style=&quot;font-size: 18px;&quot;&gt;Related to&lt;/font&gt;" style="rhombus;whiteSpace=wrap;html=1;" vertex="1" parent="1">
          <mxGeometry x="-290" y="770" width="110" height="100" as="geometry" />
        </mxCell>
        <mxCell id="g8YVUo3Ev3JXfUxe4tTI-124" value="" style="shape=link;html=1;rounded=0;exitX=0.5;exitY=0;exitDx=0;exitDy=0;entryX=0.75;entryY=1;entryDx=0;entryDy=0;" edge="1" parent="1" source="g8YVUo3Ev3JXfUxe4tTI-123" target="g8YVUo3Ev3JXfUxe4tTI-1">
          <mxGeometry relative="1" as="geometry">
            <mxPoint x="-246.25" y="765" as="sourcePoint" />
            <mxPoint x="-286.25" y="645" as="targetPoint" />
          </mxGeometry>
        </mxCell>
        <mxCell id="g8YVUo3Ev3JXfUxe4tTI-125" value="N" style="resizable=0;html=1;whiteSpace=wrap;align=right;verticalAlign=bottom;" connectable="0" vertex="1" parent="g8YVUo3Ev3JXfUxe4tTI-124">
          <mxGeometry x="1" relative="1" as="geometry">
            <mxPoint x="-10" y="23" as="offset" />
          </mxGeometry>
        </mxCell>
        <mxCell id="g8YVUo3Ev3JXfUxe4tTI-126" value="&lt;font style=&quot;font-size: 18px;&quot;&gt;Location&lt;/font&gt;" style="ellipse;whiteSpace=wrap;html=1;align=center;" vertex="1" parent="1">
          <mxGeometry x="-520" y="950" width="110" height="50" as="geometry" />
        </mxCell>
        <mxCell id="g8YVUo3Ev3JXfUxe4tTI-127" value="&lt;font style=&quot;font-size: 18px;&quot;&gt;Name&lt;/font&gt;" style="ellipse;whiteSpace=wrap;html=1;align=center;" vertex="1" parent="1">
          <mxGeometry x="-405" y="1050" width="120" height="60" as="geometry" />
        </mxCell>
        <mxCell id="g8YVUo3Ev3JXfUxe4tTI-128" value="&lt;font style=&quot;font-size: 18px;&quot;&gt;Catalog_ID&lt;/font&gt;" style="ellipse;whiteSpace=wrap;html=1;align=center;fontStyle=4;" vertex="1" parent="1">
          <mxGeometry x="-246.25" y="1070" width="115" height="50" as="geometry" />
        </mxCell>
        <mxCell id="g8YVUo3Ev3JXfUxe4tTI-129" value="" style="endArrow=none;html=1;rounded=0;entryX=0;entryY=0.5;entryDx=0;entryDy=0;exitX=1;exitY=0.5;exitDx=0;exitDy=0;" edge="1" parent="1" source="g8YVUo3Ev3JXfUxe4tTI-126" target="g8YVUo3Ev3JXfUxe4tTI-132">
          <mxGeometry relative="1" as="geometry">
            <mxPoint x="-410" y="840" as="sourcePoint" />
            <mxPoint x="-250" y="840" as="targetPoint" />
          </mxGeometry>
        </mxCell>
        <mxCell id="g8YVUo3Ev3JXfUxe4tTI-130" value="" style="endArrow=none;html=1;rounded=0;entryX=0.5;entryY=1;entryDx=0;entryDy=0;exitX=0.5;exitY=0;exitDx=0;exitDy=0;" edge="1" parent="1" source="g8YVUo3Ev3JXfUxe4tTI-127" target="g8YVUo3Ev3JXfUxe4tTI-132">
          <mxGeometry relative="1" as="geometry">
            <mxPoint x="-410" y="840" as="sourcePoint" />
            <mxPoint x="-250" y="840" as="targetPoint" />
          </mxGeometry>
        </mxCell>
        <mxCell id="g8YVUo3Ev3JXfUxe4tTI-131" value="" style="endArrow=none;html=1;rounded=0;entryX=0.5;entryY=0;entryDx=0;entryDy=0;exitX=0.75;exitY=1;exitDx=0;exitDy=0;" edge="1" parent="1" source="g8YVUo3Ev3JXfUxe4tTI-132" target="g8YVUo3Ev3JXfUxe4tTI-128">
          <mxGeometry relative="1" as="geometry">
            <mxPoint x="-294" y="914" as="sourcePoint" />
            <mxPoint x="-250" y="840" as="targetPoint" />
          </mxGeometry>
        </mxCell>
        <mxCell id="g8YVUo3Ev3JXfUxe4tTI-132" value="&lt;font style=&quot;font-size: 18px;&quot;&gt;Catalog&lt;/font&gt;" style="whiteSpace=wrap;html=1;align=center;" vertex="1" parent="1">
          <mxGeometry x="-285" y="950" width="100" height="40" as="geometry" />
        </mxCell>
        <mxCell id="g8YVUo3Ev3JXfUxe4tTI-133" value="" style="endArrow=none;html=1;rounded=0;entryX=0.5;entryY=0;entryDx=0;entryDy=0;exitX=0.5;exitY=1;exitDx=0;exitDy=0;" edge="1" parent="1" source="g8YVUo3Ev3JXfUxe4tTI-123" target="g8YVUo3Ev3JXfUxe4tTI-132">
          <mxGeometry relative="1" as="geometry">
            <mxPoint x="-520" y="860" as="sourcePoint" />
            <mxPoint x="-360" y="860" as="targetPoint" />
          </mxGeometry>
        </mxCell>
        <mxCell id="g8YVUo3Ev3JXfUxe4tTI-134" value="1" style="resizable=0;html=1;whiteSpace=wrap;align=right;verticalAlign=bottom;" connectable="0" vertex="1" parent="g8YVUo3Ev3JXfUxe4tTI-133">
          <mxGeometry x="1" relative="1" as="geometry" />
        </mxCell>
      </root>
    </mxGraphModel>
  </diagram>
</mxfile>
